<?xml version="1.0" standalone="no"?>
<!DOCTYPE svg PUBLIC "-//W3C//DTD SVG 20010904//EN"
 "http://www.w3.org/TR/2001/REC-SVG-20010904/DTD/svg10.dtd">
<svg version="1.0" xmlns="http://www.w3.org/2000/svg"
 width="500.000000pt" height="500.000000pt" viewBox="0 0 500.000000 500.000000"
 preserveAspectRatio="xMidYMid meet">

<g transform="translate(0.000000,500.000000) scale(0.100000,-0.100000)"
fill="#000000" stroke="none">
<path d="M0 2500 l0 -2500 2500 0 2500 0 0 2500 0 2500 -2500 0 -2500 0 0
-2500z m2750 1364 c187 -35 388 -116 546 -220 110 -73 265 -221 350 -334 75
-99 171 -287 212 -415 81 -249 89 -514 25 -795 -5 -20 5 -14 49 33 51 54 80
69 93 47 15 -25 -82 -160 -150 -209 -41 -29 -68 -71 -90 -141 -7 -22 -6 -22
36 4 91 56 128 71 142 57 10 -10 0 -24 -49 -70 -56 -53 -105 -83 -176 -110
-25 -9 -95 -97 -86 -107 3 -2 25 4 49 15 57 25 110 34 129 22 37 -25 -104
-114 -211 -133 -54 -9 -65 -16 -141 -89 -56 -53 -75 -76 -57 -70 55 20 181 33
193 21 31 -32 -134 -99 -264 -108 -58 -4 -83 -10 -110 -29 l-35 -24 100 3 c83
2 100 1 100 -12 0 -38 -159 -80 -302 -80 -77 0 -116 -6 -178 -25 -264 -83
-544 -86 -825 -8 -69 19 -133 28 -230 34 -100 5 -150 12 -191 28 -70 27 -94
44 -84 61 6 10 31 11 104 7 l96 -7 -35 23 c-24 15 -57 24 -111 28 -78 7 -218
48 -253 74 -24 18 -14 45 16 45 26 0 142 -24 173 -36 11 -4 -18 28 -64 72 -76
71 -90 80 -143 91 -97 20 -232 103 -213 132 10 17 39 13 111 -14 37 -14 69
-24 70 -22 8 8 -68 107 -82 107 -48 0 -234 134 -234 168 0 27 30 21 106 -22
43 -24 80 -43 82 -42 5 6 -58 136 -66 136 -15 0 -113 102 -144 149 -29 47 -37
91 -16 91 7 0 39 -26 71 -57 37 -37 57 -51 54 -38 -72 262 -58 571 36 840 74
209 178 374 332 529 331 330 814 483 1265 400z"/>
<path d="M2295 3846 c-221 -37 -410 -111 -582 -227 -353 -239 -578 -624 -612
-1050 -16 -189 13 -430 65 -546 l17 -38 8 65 c11 91 32 154 51 158 37 7 36
-149 -1 -269 l-20 -62 30 -58 c16 -33 31 -59 32 -59 2 0 3 40 4 90 2 99 8 130
27 130 23 0 38 -73 43 -210 l6 -135 45 -57 c25 -32 46 -58 48 -58 1 0 -6 26
-15 58 -27 88 -33 129 -21 137 6 4 18 1 26 -6 25 -20 80 -137 108 -229 27 -85
27 -85 101 -143 41 -31 75 -55 75 -51 0 3 -14 25 -30 50 -17 24 -42 67 -55 96
-50 107 -23 117 62 24 33 -36 79 -104 106 -155 47 -89 65 -107 125 -125 19 -7
17 1 -22 56 -74 106 -119 241 -74 222 31 -13 130 -156 210 -302 13 -24 29 -34
70 -46 218 -63 562 -62 761 2 51 17 53 19 98 105 62 116 153 237 179 237 12 0
20 -7 20 -16 0 -26 -67 -162 -106 -216 -35 -48 -36 -50 -13 -43 57 17 83 41
118 110 45 89 72 128 130 188 45 47 71 59 71 33 0 -21 -39 -105 -76 -164 -19
-28 -30 -52 -26 -52 4 0 39 27 77 59 64 53 72 63 83 111 15 64 92 229 116 249
33 28 39 -1 17 -83 -12 -42 -21 -81 -21 -87 0 -6 20 15 45 47 l45 57 0 92 c0
81 11 175 26 228 8 24 33 21 39 -5 3 -13 6 -63 8 -112 l2 -89 31 60 32 61 -19
56 c-37 108 -38 281 -2 274 19 -3 39 -68 51 -163 l8 -60 22 68 c46 143 57 223
56 407 0 141 -5 195 -22 277 -120 558 -535 972 -1095 1094 -121 26 -370 34
-482 15z m259 -121 c-3 -19 -10 -58 -14 -87 l-8 -53 -1 52 c0 28 -6 64 -11 78
-12 32 -6 45 21 45 17 0 19 -5 13 -35z m-79 -113 c59 -136 60 -137 66 -97 5
37 5 35 10 -23 3 -52 1 -62 -12 -62 -10 0 -34 42 -71 128 -31 70 -61 126 -67
125 -6 -2 -11 7 -11 20 0 13 -5 28 -12 35 -9 9 -7 12 13 12 21 0 30 -15 84
-138z m-220 72 c3 -25 31 -93 62 -151 57 -108 58 -122 11 -123 -14 0 -18 9
-18 43 0 61 -7 68 -58 55 -46 -12 -50 -20 -27 -75 8 -20 14 -37 13 -38 -2 -1
-24 -9 -51 -19 l-47 -18 -31 26 c-30 26 -82 35 -93 17 -4 -5 6 -23 20 -41 15
-17 25 -32 23 -34 -7 -6 -47 -26 -52 -26 -2 0 -7 19 -11 41 -8 50 -66 179
-101 225 l-24 32 49 21 c27 12 61 21 75 21 39 0 82 -29 100 -66 20 -42 19 -72
-3 -109 l-18 -30 55 -22 c30 -12 57 -20 60 -17 4 3 9 67 12 142 4 105 6 118 7
54 l2 -84 33 7 c17 4 35 9 39 12 10 5 -68 160 -83 165 -21 7 -1 38 25 38 21 0
25 -6 31 -46z m611 15 c58 -28 89 -78 88 -144 -2 -112 -93 -192 -194 -171 -40
7 -38 1 9 -30 29 -19 50 -25 77 -22 44 3 58 -17 20 -31 -38 -15 -82 3 -137 54
-40 37 -53 44 -74 39 -15 -4 -25 -2 -25 5 0 6 10 11 22 11 l21 0 -20 23 c-33
36 -43 63 -43 119 0 61 29 118 76 148 40 27 124 27 180 -1z m-441 -256 c6 -20
4 -23 -20 -23 -22 0 -26 3 -20 18 4 9 10 62 14 117 l6 100 6 -95 c4 -52 10
-105 14 -117z m684 161 l23 -16 -35 -37 c-38 -39 -127 -189 -127 -213 0 -25
36 -50 67 -46 23 2 37 17 80 88 28 47 57 104 63 128 14 46 17 48 45 28 18 -13
18 -15 -8 -46 -15 -17 -46 -64 -68 -103 -54 -94 -76 -117 -110 -117 -34 0 -89
45 -89 73 0 11 22 60 49 107 27 48 55 105 62 128 14 47 16 48 48 26z m-1279
-75 c27 -38 21 -46 -18 -23 -31 18 -62 14 -62 -8 0 -19 92 -144 146 -199 35
-35 42 -48 32 -56 -32 -25 -38 -23 -53 12 -19 47 -136 213 -154 220 -8 3 -21
-1 -29 -9 -13 -12 -13 -20 -2 -46 7 -17 10 -34 6 -38 -8 -8 -45 37 -46 55 0 9
144 123 156 123 1 0 12 -14 24 -31z m1545 -110 l55 -52 -21 -28 c-26 -37 -40
-37 -26 0 14 39 -3 81 -35 81 -24 0 -78 -46 -78 -67 0 -21 39 -36 56 -22 9 7
14 8 14 1 0 -6 -14 -21 -31 -33 -30 -21 -31 -21 -25 -2 4 13 0 25 -10 34 -15
12 -23 7 -70 -44 -60 -65 -66 -89 -28 -113 23 -16 28 -16 60 -1 19 9 34 14 34
10 0 -11 -43 -53 -54 -53 -6 0 -36 23 -66 51 l-55 50 25 16 c40 26 139 134
167 181 14 23 27 42 30 42 2 0 29 -23 58 -51z m187 -222 c27 -91 -73 -173
-163 -133 -12 5 -17 -5 -25 -54 l-10 -60 30 0 c17 0 89 14 160 31 124 30 130
31 143 13 17 -24 16 -34 -4 -40 -59 -19 -84 -35 -161 -101 -47 -40 -89 -73
-93 -73 -8 0 -29 33 -29 44 0 3 17 10 38 16 65 18 68 23 47 69 -20 45 -34 47
-87 10 -34 -24 -34 -24 -47 9 -6 15 -16 35 -23 44 -10 14 -9 24 5 53 21 45 22
69 1 86 -14 11 -20 9 -43 -20 l-27 -32 -19 21 c-19 22 -19 22 0 36 10 8 23 14
28 14 18 0 164 111 187 142 l23 32 29 -35 c16 -19 34 -51 40 -72z m-2086 11
c22 -24 108 -65 206 -97 l68 -22 -16 -25 c-21 -31 -24 -30 -59 6 -36 37 -48
38 -74 1 -29 -40 -27 -47 19 -73 40 -23 50 -41 28 -54 -7 -4 -24 8 -42 32 -17
21 -66 76 -108 121 -79 82 -88 99 -66 121 16 16 22 15 44 -10z m1305 -17 l24
-20 -35 -38 c-19 -21 -36 -40 -37 -42 -3 -5 -63 20 -63 26 0 8 74 93 81 93 4
0 17 -9 30 -19z m-95 -112 c36 -22 44 -39 20 -39 -20 0 -86 40 -86 51 0 15 31
10 66 -12z m-32 -42 c18 -13 17 -15 -2 -53 -11 -21 -22 -48 -25 -59 -50 -177
-58 -195 -83 -195 -13 0 -24 6 -24 13 0 23 60 237 77 272 18 38 29 42 57 22z
m-1318 -92 c26 -20 216 -115 230 -115 1 0 10 7 18 16 22 22 20 54 -6 81 -12
13 -19 26 -15 29 6 7 67 -27 67 -37 0 -4 -14 -36 -31 -73 l-31 -66 -31 24
c-44 33 -143 81 -197 96 -25 7 -51 14 -57 16 -10 3 -10 9 -1 29 14 31 14 31
54 0z m1331 -261 c15 -12 36 -35 46 -53 l19 -31 -231 0 -232 0 15 28 c36 69
73 82 233 79 106 -2 125 -5 150 -23z m150 -179 c134 -139 207 -338 170 -465
-23 -76 -49 -115 -103 -153 -61 -43 -118 -64 -221 -82 -107 -19 -213 -19 -323
-1 -195 32 -301 113 -330 251 -26 126 42 308 168 447 39 44 48 46 57 17 5 -14
10 -18 17 -11 6 6 6 17 -2 32 -10 18 -9 24 1 31 8 5 122 9 254 9 l240 0 72
-75z m-1074 -605 c10 -16 33 -50 52 -75 19 -25 29 -45 22 -45 -21 0 -108 -81
-100 -93 3 -7 -4 -3 -16 8 -16 14 -19 21 -9 24 7 2 35 22 61 44 33 27 45 43
38 50 -7 7 -16 6 -27 -4 -16 -13 -16 -12 -4 7 8 14 10 26 4 37 -9 15 -16 12
-64 -20 -30 -20 -57 -40 -58 -45 -5 -10 -32 10 -32 24 0 5 4 7 10 3 13 -8 122
65 117 79 -2 6 -16 12 -32 14 -21 3 -25 6 -14 13 23 15 34 10 52 -21z m1579
-79 l47 -31 17 25 c13 20 14 28 4 40 -15 17 1 20 17 4 9 -9 4 -23 -19 -57 -18
-25 -33 -41 -36 -34 -5 16 -91 75 -109 75 -16 0 -17 9 -1 25 9 9 14 8 22 -2 6
-7 32 -27 58 -45z m-49 -62 c70 -24 76 -29 53 -48 -10 -9 -15 -8 -20 4 -7 20
-25 19 -48 -2 -22 -20 -22 -27 -3 -47 9 -9 11 -17 5 -21 -5 -3 -25 26 -45 64
-39 78 -41 85 -22 78 6 -3 42 -16 80 -28z m-1364 -76 c-15 -17 -16 -17 -15 8
1 34 -28 47 -53 25 -16 -15 -18 -22 -9 -33 6 -8 17 -12 25 -9 18 7 16 2 -7
-19 -18 -16 -20 -17 -14 -2 10 27 -24 33 -49 9 -20 -21 -20 -22 -2 -42 13 -14
28 -20 43 -17 21 4 22 3 9 -10 -14 -14 -20 -12 -56 18 -41 34 -50 49 -30 49
16 0 88 82 89 100 0 8 16 -1 40 -25 30 -30 37 -42 29 -52z m1226 47 c-3 -5 15
-36 40 -67 26 -32 42 -59 37 -61 -6 -2 -38 4 -72 13 -34 9 -64 14 -67 11 -8
-8 51 -76 67 -76 11 0 11 -3 2 -12 -9 -9 -17 -5 -34 18 -12 16 -37 44 -54 62
-18 17 -28 34 -23 37 4 3 42 -3 83 -14 85 -21 87 -18 28 46 -21 22 -26 35 -19
42 14 14 20 14 12 1z m-1174 -128 c3 -39 8 -74 11 -77 8 -8 60 74 53 85 -10
16 11 11 25 -5 10 -12 10 -15 -1 -15 -8 0 -32 -28 -54 -62 l-40 -63 -9 88 -8
87 -29 -46 c-16 -25 -27 -50 -24 -55 7 -10 -8 -13 -18 -3 -3 4 12 33 34 65 22
33 37 64 33 70 -4 7 -1 10 7 7 9 -3 16 -28 20 -76z m1054 2 c19 -8 45 -55 45
-84 0 -32 -44 -70 -80 -70 -42 0 -80 39 -80 81 0 59 57 95 115 73z m-901 -28
c63 -26 83 -82 45 -130 -15 -19 -30 -26 -55 -26 -40 0 -103 28 -86 39 15 9 62
113 56 123 -7 11 2 10 40 -6z m741 -27 c-9 -13 34 -129 47 -129 5 0 6 -4 3
-10 -8 -14 -35 -13 -35 1 0 25 -43 128 -51 123 -5 -3 -9 -3 -9 1 0 3 10 10 23
15 29 12 29 12 22 -1z m-62 -44 c4 -24 3 -24 -13 -10 -35 32 -90 5 -90 -45 0
-54 48 -92 94 -74 19 7 21 45 4 62 -9 9 -8 12 8 12 15 0 20 -7 22 -33 2 -27
-2 -36 -23 -45 -29 -13 -74 -15 -91 -4 -18 12 -34 49 -34 80 0 35 34 69 75 75
17 2 33 5 36 6 4 0 9 -10 12 -24z m-513 -45 c0 -19 4 -52 9 -72 8 -33 7 -38
-9 -38 -22 0 -35 17 -18 22 20 7 1 35 -28 42 -28 7 -48 -8 -40 -30 3 -7 -3
-10 -14 -7 -18 5 -18 6 1 27 11 11 30 36 41 54 11 18 22 31 25 28 3 -2 -3 -15
-11 -28 -17 -26 -13 -38 12 -38 11 0 13 10 10 45 -3 24 -3 47 0 50 10 10 22
-19 22 -55z m359 12 c0 -11 -3 -12 -6 -4 -5 13 -59 17 -67 4 -3 -5 -2 -18 1
-30 6 -24 38 -30 46 -9 3 6 6 2 6 -9 1 -17 -4 -20 -24 -16 -23 4 -25 1 -25
-31 0 -29 4 -36 23 -40 15 -3 10 -5 -13 -6 l-35 -1 3 50 c2 28 -1 63 -6 80
l-11 29 47 3 c56 4 62 2 61 -20z m-158 8 c23 -13 26 -58 4 -66 -21 -8 -19 -26
6 -58 16 -20 17 -26 6 -26 -8 0 -24 16 -36 35 -11 19 -25 35 -31 35 -14 0 -12
-57 3 -63 6 -3 0 -6 -14 -6 l-26 -1 9 58 c5 31 7 67 5 80 -4 19 0 22 25 22 16
0 38 -5 49 -10z m179 -130 c0 -5 -10 -10 -22 -10 -19 0 -20 2 -8 10 19 13 30
13 30 0z"/>
<path d="M1937 3613 c-14 -13 -6 -43 29 -122 34 -75 38 -80 58 -69 69 35 74
108 13 176 -20 21 -84 32 -100 15z"/>
<path d="M2730 3703 c-51 -19 -90 -83 -90 -150 0 -93 60 -157 146 -155 83 1
134 59 134 151 0 96 -58 162 -142 160 -18 0 -40 -3 -48 -6z"/>
<path d="M3459 3221 c-24 -17 -60 -44 -79 -60 l-35 -31 28 -25 c48 -43 124
-26 161 35 20 35 20 59 0 88 -19 28 -22 28 -75 -7z"/>
<path d="M3575 2978 c-44 -12 -82 -23 -84 -25 -3 -2 3 -19 12 -38 14 -30 20
-34 35 -26 19 11 130 110 122 110 -3 -1 -41 -10 -85 -21z"/>
<path d="M1478 3133 c17 -21 43 -50 59 -66 l29 -27 23 31 c13 17 19 35 15 39
-9 9 -138 60 -150 60 -3 0 8 -17 24 -37z"/>
<path d="M2360 2640 c0 -6 55 -10 145 -10 90 0 145 4 145 10 0 6 -55 10 -145
10 -90 0 -145 -4 -145 -10z"/>
<path d="M2752 2487 c-12 -13 -19 -27 -15 -30 7 -8 53 31 53 45 0 15 -16 8
-38 -15z"/>
<path d="M2420 2470 c0 -5 18 -10 40 -10 22 0 40 5 40 10 0 6 -18 10 -40 10
-22 0 -40 -4 -40 -10z"/>
<path d="M2566 2372 c-3 -6 4 -23 17 -38 31 -36 43 -17 13 21 -14 18 -25 24
-30 17z"/>
<path d="M2841 2349 c27 -52 50 -139 50 -196 1 -73 -5 -87 -30 -73 -28 14 -35
-2 -10 -21 22 -16 22 -18 5 -43 -24 -37 -88 -81 -155 -107 -46 -18 -78 -22
-181 -23 -69 -1 -140 2 -157 6 -25 6 -33 4 -33 -6 0 -19 63 -29 175 -29 278 2
444 142 406 344 -14 80 -50 169 -67 169 -12 0 -13 -4 -3 -21z"/>
<path d="M2250 2322 c0 -12 34 -42 48 -42 17 0 15 15 -6 33 -20 18 -42 22 -42
9z"/>
<path d="M2096 2175 c-10 -8 -23 -16 -29 -18 -6 -2 -7 -8 -3 -15 5 -8 17 -5
41 11 19 12 35 25 35 30 0 12 -23 8 -44 -8z"/>
<path d="M2415 2160 c-38 -40 -23 -52 16 -13 17 17 27 33 22 36 -6 4 -23 -7
-38 -23z"/>
<path d="M2617 2075 c-20 -42 -4 -58 18 -16 8 17 15 35 15 41 0 21 -17 9 -33
-25z"/>
<path d="M2140 2000 c0 -16 5 -30 10 -30 6 0 10 14 10 30 0 17 -4 30 -10 30
-5 0 -10 -13 -10 -30z"/>
<path d="M2435 1970 c-4 -6 1 -18 11 -25 36 -27 48 -11 15 19 -13 12 -21 14
-26 6z"/>
<path d="M3216 1729 c15 -29 17 -30 32 -15 16 16 16 18 -2 32 -35 26 -49 18
-30 -17z"/>
<path d="M2932 1588 c-21 -21 -14 -77 13 -103 28 -29 57 -32 79 -9 23 23 19
58 -10 93 -27 32 -61 40 -82 19z"/>
<path d="M2071 1508 c-30 -67 -27 -78 21 -78 31 0 68 41 68 76 0 22 -34 64
-52 64 -5 0 -22 -28 -37 -62z"/>
<path d="M2430 1446 c0 -22 5 -36 13 -36 42 1 51 62 10 68 -20 3 -23 -1 -23
-32z"/>
<path d="M1020 2136 c0 -16 70 -104 97 -121 25 -17 25 -16 -7 28 -35 49 -90
106 -90 93z"/>
<path d="M1226 2108 c-3 -17 -8 -63 -11 -102 -5 -57 -3 -66 6 -46 11 26 26
180 17 180 -3 0 -8 -14 -12 -32z"/>
<path d="M3943 2108 c-49 -54 -88 -109 -70 -102 24 9 121 134 104 134 -2 0
-17 -15 -34 -32z"/>
<path d="M3764 2058 c2 -42 9 -85 15 -95 9 -14 10 -1 5 51 -10 105 -25 137
-20 44z"/>
<path d="M1312 1845 c0 -33 4 -73 8 -90 6 -22 8 -12 8 40 0 39 -3 79 -8 90 -6
14 -8 2 -8 -40z"/>
<path d="M3677 1873 c-10 -17 -17 -158 -8 -142 11 18 27 149 18 149 -3 0 -8
-3 -10 -7z"/>
<path d="M1119 1826 c30 -32 108 -79 123 -74 13 5 -54 54 -112 83 l-35 18 24
-27z"/>
<path d="M3834 1814 c-87 -52 -116 -86 -39 -45 64 33 127 80 109 81 -5 0 -37
-16 -70 -36z"/>
<path d="M1457 1625 c8 -42 41 -124 59 -149 16 -20 16 -20 9 9 -9 41 -75 177
-68 140z"/>
<path d="M3521 1602 c-26 -52 -62 -152 -56 -152 15 0 92 187 82 197 -2 1 -14
-19 -26 -45z"/>
<path d="M1225 1604 c33 -27 124 -66 143 -62 22 5 -28 32 -107 59 -47 16 -53
16 -36 3z"/>
<path d="M3740 1606 c-50 -19 -143 -67 -138 -71 12 -13 169 52 183 75 8 13 -1
12 -45 -4z"/>
<path d="M1670 1447 c-1 -26 102 -177 121 -177 15 0 -39 93 -83 143 -20 23
-37 38 -38 34z"/>
<path d="M3280 1398 c-76 -95 -101 -171 -28 -83 26 31 82 135 73 135 -2 0 -23
-23 -45 -52z"/>
<path d="M1881 1343 c22 -51 75 -128 110 -158 19 -17 18 -11 -11 40 -32 59
-107 165 -115 165 -2 0 5 -21 16 -47z"/>
<path d="M3077 1318 c-24 -35 -54 -83 -66 -108 l-22 -45 39 42 c39 42 108 160
99 169 -3 3 -25 -23 -50 -58z"/>
<path d="M1485 1326 c36 -18 131 -39 148 -33 17 5 -78 35 -133 42 l-45 5 30
-14z"/>
<path d="M3420 1318 c-36 -11 -59 -23 -53 -25 16 -6 110 14 148 32 l30 13 -30
1 c-16 0 -59 -9 -95 -21z"/>
<path d="M1690 1173 c34 -16 221 -32 209 -19 -10 10 -157 35 -204 35 l-40 -1
35 -15z"/>
<path d="M3186 1174 c-44 -8 -82 -17 -85 -19 -2 -3 22 -5 55 -5 57 0 168 21
181 34 10 10 -67 5 -151 -10z"/>
</g>
</svg>
